<?xml version="1.0" encoding="UTF-8" standalone="no"?>
<!-- Created with Inkscape (http://www.inkscape.org/) -->

<svg
   width="210mm"
   height="297mm"
   viewBox="0 0 210 297"
   version="1.1"
   id="svg5"
   inkscape:version="1.1.2 (b8e25be833, 2022-02-05)"
   sodipodi:docname="cblol-logo.png.svg"
   xmlns:inkscape="http://www.inkscape.org/namespaces/inkscape"
   xmlns:sodipodi="http://sodipodi.sourceforge.net/DTD/sodipodi-0.dtd"
   xmlns="http://www.w3.org/2000/svg"
   xmlns:svg="http://www.w3.org/2000/svg">
  <sodipodi:namedview
     id="namedview7"
     pagecolor="#ffffff"
     bordercolor="#666666"
     borderopacity="1.0"
     inkscape:pageshadow="2"
     inkscape:pageopacity="0.0"
     inkscape:pagecheckerboard="0"
     inkscape:document-units="mm"
     showgrid="false"
     inkscape:zoom="0.51654111"
     inkscape:cx="1013.4721"
     inkscape:cy="643.70482"
     inkscape:window-width="1920"
     inkscape:window-height="1013"
     inkscape:window-x="-9"
     inkscape:window-y="-9"
     inkscape:window-maximized="1"
     inkscape:current-layer="layer1" />
  <defs
     id="defs2" />
  <g
     inkscape:label="Camada 1"
     inkscape:groupmode="layer"
     id="layer1">
    <path
       style="fill:#030303;stroke:none;stroke-width:0.264583"
       d="m 106.71246,85.21747 -3.33904,14.2875 -5.100376,21.69584 -2.67308,11.90625 -13.75833,-16.93334 h -0.26459 l 2.49714,9.78959 0.9271,4.7625 -1.77826,2.38125 -2.96889,4.49791 3.70416,2.91042 h 0.26459 l 2.91041,-3.43958 2.38125,9.525 -15.61041,-6.87917 c 0.75988,1.39462 2.18995,2.91518 2.45639,4.49792 0.23786,1.41393 -0.58791,3.1152 -0.86387,4.49791 -0.48895,2.44687 -0.5797,4.92046 -0.52916,7.40833 0.11483,5.66341 2.05501,11.4054 5.11863,16.13959 3.18505,4.92204 7.83193,8.94397 13.13259,11.42947 2.01401,0.94456 4.17909,1.71873 6.35,2.21086 1.232426,0.2794 2.811986,0.26749 3.898626,0.95991 1.42558,0.90831 2.31855,3.07022 3.24512,4.44976 h 0.26458 c 0.92657,-1.37954 1.81954,-3.54145 3.24512,-4.44976 1.08664,-0.69242 2.6662,-0.68051 3.89863,-0.95991 2.17091,-0.49213 4.33599,-1.2663 6.35,-2.21086 5.30066,-2.4855 9.94754,-6.50743 13.1326,-11.42947 3.06361,-4.73419 5.0038,-10.47618 5.11863,-16.13959 0.0505,-2.48787 -0.0402,-4.96146 -0.52917,-7.40833 -0.27596,-1.38271 -1.10173,-3.08398 -0.86387,-4.49791 0.26644,-1.58274 1.69651,-3.1033 2.4564,-4.49792 l -15.61042,6.87917 2.38125,-9.525 2.91042,3.43958 h 0.26458 l 3.70417,-2.91042 -2.96889,-4.49791 -1.77827,-2.38125 0.9271,-4.7625 2.49714,-9.78959 h -0.26458 l -13.75834,16.93334 -2.60985,-11.64167 -4.63259,-19.57917 -2.43125,-10.31875 -1.70339,-6.35 m 0.26458,32.27917 6.26137,26.72292 2.46988,10.84791 7.40834,-3.43958 -5.70495,9.26041 -10.43464,16.40417 h -0.26458 l -10.072416,-15.875 -5.80258,-9.525 7.14375,3.175 5.644876,-24.34166 1.99205,-8.46667 1.3589,-4.7625 m -0.26458,26.45833 -2.73447,7.9375 -0.96679,3.43959 1.20412,3.96874 2.49714,7.14375 h 0.26458 l 2.49714,-7.14375 1.20412,-3.96874 -1.05542,-3.70417 -2.91042,-7.67292 m -25.929166,6.35 13.77659,21.69583 5.27341,8.46667 c -9.82742,-2.42332 -17.22543,-10.83601 -19.20795,-20.6375 -0.54055,-2.67282 -1.13401,-7.0223 0.15795,-9.525 m 52.387496,0 c 1.79547,10.1436 -2.67837,20.59305 -11.1125,26.44616 -2.44501,1.69678 -5.24113,3.2057 -8.20208,3.71634 l 11.88799,-18.78542 7.42659,-11.37708 m -79.639576,62.44167 h -14.02292 c -1.36154,3.39989 -4.9911,3.70311 -8.20208,3.70416 -4.22315,0.001 -10.2385,-0.44661 -10.03927,-6.08541 0.0773,-2.18837 1.42959,-3.80418 3.42474,-4.61434 1.01155,-0.41089 2.09907,-0.56038 3.17494,-0.69268 3.8389,-0.47201 10.03168,-0.65643 11.64167,3.71952 h 14.02292 c -0.45852,-7.47395 -6.42911,-11.13261 -13.22917,-12.2809 -1.91294,-0.32306 -3.87985,-0.60775 -5.82083,-0.6731 -1.58467,-0.0532 -3.17701,-0.0106 -4.7625,-0.0106 -7.7556,0 -19.00756,1.1012 -21.5188799,10.05417 -0.41996,1.49728 -0.66488,3.20543 -0.6649,4.7625 -2e-5,1.63645 0.21644,3.46049 0.68641,5.02708 2.8289199,9.42922 14.9410199,10.05417 23.0848699,10.05417 1.60679,0 3.16362,-0.14737 4.7625,-0.24606 6.04229,-0.3728 13.45882,-1.91241 16.30389,-7.95602 0.70723,-1.50231 1.0033,-3.12129 1.15861,-4.7625 m 1.85208,-16.93334 v 29.89792 h 24.87084 c 4.5585,0 9.58876,0.59081 14.02291,-0.65061 4.70641,-1.31789 8.242036,-6.04308 6.148646,-10.99106 -0.945346,-2.23493 -2.770176,-3.83698 -4.825726,-5.02708 2.75616,-3.10991 4.34181,-8.44841 0.25162,-11.37417 -1.23508,-0.88371 -2.74611,-1.2962 -4.22037,-1.56395 -4.1783,-0.75804 -8.72834,-0.29105 -12.96458,-0.29105 h -23.28334 m 47.624996,0 v 29.89792 h 37.57084 v -0.26458 l -8.46667,-6.04785 -4.7625,-3.03636 -3.70417,-0.17621 h -6.87916 v -20.37292 h -13.75834 m 30.95625,16.40417 c 8e-4,-1.77191 -0.031,-3.52107 1.22688,-4.92892 2.65059,-2.96704 8.44576,-2.70828 12.00229,-2.07645 1.31207,0.2331 2.66356,0.66463 3.69067,1.54067 2.01269,1.71661 2.5998,4.94321 0.71544,7.00325 -1.00304,1.0967 -2.45984,1.65497 -3.87694,1.98014 -1.67085,0.38365 -3.32105,0.45006 -5.02709,0.45006 h -8.46666 c 2.58259,2.7178 6.03038,4.77123 8.99583,7.05511 1.24381,0.9578 2.56831,2.34368 4.23333,2.39978 4.94189,0.16589 11.35671,-1.42717 15.05982,-4.78843 4.84929,-4.40188 5.26336,-13.55778 1.38986,-18.68858 -2.21271,-2.93106 -5.82136,-4.4966 -9.30593,-5.31945 -6.98473,-1.64915 -15.22915,-1.65735 -22.225,-0.0616 -3.25278,0.74216 -6.56907,1.93649 -8.97308,4.34472 -1.05172,1.05358 -2.72785,3.06573 -2.46565,4.70165 0.15531,0.96785 1.19221,1.55363 1.91453,2.07989 1.81954,1.32583 3.9116,3.46366 6.08462,4.12882 1.5277,0.46779 3.44249,0.17939 5.02708,0.17939 m 34.39584,-16.40417 v 29.89792 h 37.57083 v -0.26458 l -8.73125,-6.1984 -4.49792,-2.88554 -3.70416,-0.17648 h -6.87917 V 195.8133 h -13.75833 m -99.218746,10.84792 v -3.96875 c 3.96848,0 7.93776,-0.0225 11.90625,7.9e-4 1.32556,0.008 3.47741,0.0585 3.57452,1.85262 0.096,1.77694 -1.98755,2.07962 -3.30994,2.11031 -4.05236,0.0934 -8.11715,0.005 -12.17083,0.005 m 0,11.37708 v -3.96875 h 14.02291 c 1.3679,10e-4 4.0214,-0.14763 4.06162,1.85632 0.0405,2.0238 -2.65377,2.10397 -4.06162,2.11164 -4.67386,0.0262 -9.34879,7.9e-4 -14.02291,7.9e-4 z"
       id="path129" />
  </g>
</svg>
