<svg width="54" height="54" viewBox="0 0 54 54" fill="none" xmlns="http://www.w3.org/2000/svg">
<path d="M36.7031 30.4569L39.6881 29.1302L27 49.0687L14.3119 29.1302L17.2969 30.4569L17.786 30.6743L17.9696 30.1716L27 5.45691L36.0304 30.1716L36.214 30.6743L36.7031 30.4569ZM27.4743 13.3419L27.0239 11.9905L26.5309 13.327L19.6888 31.8757L20.5774 32.3209L25.8954 24.1219L23.0123 36.8899L22.9711 37.0723L23.0598 37.237L26.5598 43.737L26.9774 44.5126L27.4292 43.7565L30.8503 38.0308L34.2713 32.3052L34.3987 32.0921L34.3058 31.8618L31.4637 24.813L31.0224 23.7185L30.5431 24.7969L28.3148 29.8105L29.991 21.0944L30.0157 20.966L29.9743 20.8419L27.4743 13.3419Z" stroke="#64748B"/>
</svg>
