<svg width="54" height="54" viewBox="0 0 54 54" fill="none" xmlns="http://www.w3.org/2000/svg">
<mask id="path-1-inside-1_9_8" fill="white">
<path d="M27 4L36.5 30L41 28L27 50L13 28L17.5 30L27 4ZM27 13.5L20.1579 32.0488L27 21.5L23.5 37L27 43.5L30.4211 37.7744L33.8421 32.0488L31 25L27 34L29.5 21L27 13.5Z"/>
</mask>
<path d="M27 4L37.3319 0.224878L27 -28.0519L16.6681 0.224878L27 4ZM36.5 30L26.1681 33.7751L30.2087 44.8336L40.9675 40.0519L36.5 30ZM41 28L50.2803 33.9056L69.8615 3.13519L36.5325 17.9481L41 28ZM27 50L17.7197 55.9056L27 70.4889L36.2803 55.9056L27 50ZM13 28L17.4675 17.9481L-15.8615 3.13519L3.71972 33.9056L13 28ZM17.5 30L13.0325 40.0519L23.7913 44.8336L27.8319 33.7751L17.5 30ZM27 13.5L37.4355 10.0215L27.5253 -19.709L16.6797 9.69315L27 13.5ZM20.1579 32.0488L9.83763 28.2419L29.3866 38.0347L20.1579 32.0488ZM27 21.5L37.7299 23.9229L17.7713 15.5141L27 21.5ZM33.8421 32.0488L43.2849 37.6909L46.0868 33.0016L44.044 27.9353L33.8421 32.0488ZM27 43.5L17.3148 48.7151L26.5027 65.7783L36.4428 49.1421L27 43.5ZM23.5 37L12.7701 34.5771L11.8637 38.5915L13.8148 42.2151L23.5 37ZM30.4211 37.7744L39.8639 43.4165L39.8639 43.4165L30.4211 37.7744ZM29.5 21L40.3021 23.0773L40.8455 20.2515L39.9355 17.5215L29.5 21ZM27 34L16.1979 31.9227L37.0519 38.4675L27 34ZM31 25L41.2019 20.8865L31.4928 -3.19324L20.9481 20.5325L31 25ZM16.6681 7.77512L26.1681 33.7751L46.8319 26.2249L37.3319 0.224878L16.6681 7.77512ZM40.9675 40.0519L45.4675 38.0519L36.5325 17.9481L32.0325 19.9481L40.9675 40.0519ZM31.7197 22.0944L17.7197 44.0944L36.2803 55.9056L50.2803 33.9056L31.7197 22.0944ZM36.2803 44.0944L22.2803 22.0944L3.71972 33.9056L17.7197 55.9056L36.2803 44.0944ZM8.53248 38.0519L13.0325 40.0519L21.9675 19.9481L17.4675 17.9481L8.53248 38.0519ZM27.8319 33.7751L37.3319 7.77512L16.6681 0.224878L7.16809 26.2249L27.8319 33.7751ZM16.6797 9.69315L9.83763 28.2419L30.4782 35.8556L37.3203 17.3068L16.6797 9.69315ZM29.3866 38.0347L36.2287 27.4859L17.7713 15.5141L10.9292 26.0629L29.3866 38.0347ZM16.2701 19.0771L12.7701 34.5771L34.2299 39.4229L37.7299 23.9229L16.2701 19.0771ZM13.8148 42.2151L17.3148 48.7151L36.6852 38.2849L33.1852 31.7849L13.8148 42.2151ZM36.4428 49.1421L39.8639 43.4165L20.9782 32.1323L17.5572 37.8579L36.4428 49.1421ZM39.8639 43.4165L43.2849 37.6909L24.3993 26.4067L20.9782 32.1323L39.8639 43.4165ZM39.9355 17.5215L37.4355 10.0215L16.5645 16.9785L19.0645 24.4785L39.9355 17.5215ZM37.8021 36.0773L40.3021 23.0773L18.6979 18.9227L16.1979 31.9227L37.8021 36.0773ZM44.044 27.9353L41.2019 20.8865L20.7981 29.1135L23.6402 36.1623L44.044 27.9353ZM20.9481 20.5325L16.9481 29.5325L37.0519 38.4675L41.0519 29.4675L20.9481 20.5325Z" fill="#64748B" mask="url(#path-1-inside-1_9_8)"/>
</svg>

